<svg width="94" height="20" viewBox="0 0 94 20" fill="none" xmlns="http://www.w3.org/2000/svg">
<path d="M9.868 19.13C8.08267 19.13 6.47067 18.7313 5.032 17.934C3.61067 17.1367 2.484 16.036 1.652 14.632C0.837333 13.228 0.43 11.6507 0.43 9.9C0.43 8.14933 0.837333 6.572 1.652 5.168C2.484 3.764 3.61067 2.66333 5.032 1.866C6.47067 1.06867 8.08267 0.669999 9.868 0.669999C11.1853 0.669999 12.3987 0.886666 13.508 1.32C14.6173 1.736 15.562 2.36 16.342 3.192L15.51 4.05C14.054 2.61133 12.1907 1.892 9.92 1.892C8.39467 1.892 7.008 2.23867 5.76 2.932C4.512 3.62533 3.53267 4.58733 2.822 5.818C2.11133 7.03133 1.756 8.392 1.756 9.9C1.756 11.408 2.11133 12.7773 2.822 14.008C3.53267 15.2213 4.512 16.1747 5.76 16.868C7.008 17.5613 8.39467 17.908 9.92 17.908C12.1733 17.908 14.0367 17.18 15.51 15.724L16.342 16.582C15.562 17.414 14.6087 18.0467 13.482 18.48C12.3727 18.9133 11.168 19.13 9.868 19.13ZM35.9413 17.804V19H23.3833V0.799999H35.5513V1.996H24.7093V9.172H34.4073V10.342H24.7093V17.804H35.9413ZM56.0119 19L51.6699 12.916C51.0286 13.0027 50.4392 13.046 49.9019 13.046H44.7019V19H43.3759V0.799999H49.9019C52.1899 0.799999 53.9839 1.346 55.2839 2.438C56.5839 3.51267 57.2339 5.012 57.2339 6.936C57.2339 8.37467 56.8612 9.588 56.1159 10.576C55.3879 11.5467 54.3392 12.2313 52.9699 12.63L57.5199 19H56.0119ZM49.9019 11.876C51.8432 11.876 53.3252 11.4513 54.3479 10.602C55.3706 9.73533 55.8819 8.51333 55.8819 6.936C55.8819 5.35867 55.3706 4.14533 54.3479 3.296C53.3252 2.42933 51.8432 1.996 49.9019 1.996H44.7019V11.876H49.9019ZM81.9008 19L81.8748 3.426L74.2568 16.582H73.6068L65.9888 3.478V19H64.6888V0.799999H65.8068L73.9448 14.866L82.0828 0.799999H83.1748L83.2008 19H81.9008ZM92.1462 0.799999H93.4722V19H92.1462V0.799999Z" fill="black"/>
</svg>
