<svg width="50" height="50" viewBox="0 0 50 50" fill="none" xmlns="http://www.w3.org/2000/svg">
<path fill-rule="evenodd" clip-rule="evenodd" d="M15.6478 15.2854C18.0714 13.0673 19.5303 9.88331 22.4876 8.51256C25.9999 6.8846 30.1284 5.34782 33.6569 6.93809C37.1993 8.53461 38.5299 12.8627 40.1537 16.4744C41.6578 19.8202 43.5535 23.3831 42.6546 26.9516C41.787 30.3955 37.8226 31.6944 35.6273 34.4429C33.2025 37.4789 32.7967 42.5929 29.1723 43.8317C25.5542 45.0684 22.0549 41.8512 18.5635 40.2754C14.9721 38.6546 10.6932 37.8941 8.54149 34.5205C6.33513 31.0612 5.78944 26.3555 7.21836 22.4877C8.54871 18.8868 12.8505 17.8457 15.6478 15.2854Z" stroke="#E6D2D9"/>
<path fill-rule="evenodd" clip-rule="evenodd" d="M20.169 12.2608C23.2013 11.0761 25.6664 8.63534 28.9042 8.43802C32.7497 8.20369 37.1394 8.28037 39.8863 11.0593C42.6441 13.8491 42.3897 18.3811 42.6571 22.351C42.9049 26.0286 43.4433 30.0526 41.3684 33.0578C39.366 35.958 35.2119 35.7192 32.2094 37.4832C28.8928 39.4317 26.7439 44.0618 22.9284 43.8914C19.1195 43.7214 16.9629 39.4329 14.2456 36.6811C11.4506 33.8506 7.71529 31.5721 6.87207 27.6312C6.00744 23.5903 7.12596 18.993 9.79966 15.9024C12.2889 13.025 16.669 13.6283 20.169 12.2608Z" stroke="#E7D1D9"/>
<path fill-rule="evenodd" clip-rule="evenodd" d="M16.4692 14.269C19.0626 12.2645 20.7721 9.21537 23.8293 8.10068C27.4603 6.77682 31.6981 5.59623 35.0869 7.48098C38.489 9.37316 39.4676 13.7996 40.7959 17.5369C42.0263 20.9991 43.6294 24.711 42.4471 28.1909C41.3061 31.5492 37.2509 32.5067 34.8425 35.0592C32.1822 37.8787 31.3672 42.9408 27.6558 43.8673C23.9508 44.7922 20.7217 41.2886 17.3687 39.4215C13.9198 37.5009 9.71653 36.3793 7.843 32.8343C5.92189 29.1993 5.75583 24.4632 7.49036 20.7302C9.10525 17.2547 13.4759 16.5828 16.4692 14.269Z" stroke="white"/>
<path fill-rule="evenodd" clip-rule="evenodd" d="M26.298 39.0732C23.0118 39.1566 19.8973 40.599 16.7085 39.6946C12.9214 38.6205 8.70146 37.0742 6.87963 33.5658C5.05062 30.0437 6.65544 25.9128 7.5873 22.1296C8.45055 18.6249 9.13676 14.7002 12.0434 12.6015C14.8485 10.5761 18.7921 12.1941 22.2231 11.5618C26.0131 10.8635 29.4785 7.2779 33.1153 8.71844C36.7459 10.1565 37.5445 14.871 39.3458 18.3441C41.1987 21.9166 44.1259 25.2915 43.7592 29.2413C43.3832 33.2913 40.9236 37.1925 37.4126 39.1695C34.1437 41.0101 30.091 38.977 26.298 39.0732Z" stroke="#C0AEB5"/>
<path fill-rule="evenodd" clip-rule="evenodd" d="M15.887 36.4066C13.5061 34.1401 10.2847 32.9553 8.67153 30.0599C6.75569 26.621 4.86819 22.5423 6.06356 18.7741C7.26363 14.9912 11.3207 13.208 14.6563 11.1942C17.7463 9.32875 21.0083 7.04126 24.5472 7.61518C27.9625 8.16906 29.604 12.1029 32.4757 14.0841C35.6478 16.2725 40.6337 16.1913 42.184 19.7827C43.7317 23.3679 40.9599 27.2642 39.7749 30.9929C38.5561 34.8283 38.2362 39.2843 35.1821 41.8157C32.0505 44.4113 27.552 45.4273 23.6722 44.3397C20.06 43.3271 18.6351 39.0227 15.887 36.4066Z" stroke="#C0AEB5"/>
</svg>
