<svg width="40" height="40" viewBox="0 0 40 40" fill="none" xmlns="http://www.w3.org/2000/svg">
<path d="M20 0C8.95443 0 0 8.95443 0 20C0 31.0456 8.95443 40 20 40C31.0456 40 40 31.0456 40 20C39.9876 8.95964 31.0404 0.0123698 20 0ZM20 38.6667C9.69076 38.6667 1.33333 30.3092 1.33333 20C1.33333 9.69076 9.69076 1.33333 20 1.33333C30.3092 1.33333 38.6667 9.69076 38.6667 20C38.6549 30.3044 30.3044 38.6549 20 38.6667Z" fill="black"/>
<path d="M28.6667 8H11.3333C9.49316 8.00228 8.00228 9.49316 8 11.3333V28.6667C8.00228 30.5068 9.49316 31.9977 11.3333 32H28.6667C30.5068 31.9977 31.9977 30.5068 32 28.6667V11.3333C31.9977 9.49316 30.5068 8.00228 28.6667 8ZM30.6667 28.6667C30.6667 29.7712 29.7712 30.6667 28.6667 30.6667H11.3333C10.2288 30.6667 9.33333 29.7712 9.33333 28.6667V11.3333C9.33333 10.2288 10.2288 9.33333 11.3333 9.33333H28.6667C29.7712 9.33333 30.6667 10.2288 30.6667 11.3333V28.6667Z" fill="black"/>
<path d="M20 13.3335C16.318 13.3335 13.3333 16.3182 13.3333 20.0002C13.3333 23.6821 16.318 26.6668 20 26.6668C23.6819 26.6668 26.6666 23.6821 26.6666 20.0002C26.6627 16.3198 23.6803 13.3374 20 13.3335ZM20 25.3335C17.0543 25.3335 14.6666 22.9458 14.6666 20.0002C14.6666 17.0545 17.0543 14.6668 20 14.6668C22.9456 14.6668 25.3333 17.0545 25.3333 20.0002C25.3301 22.9442 22.944 25.3302 20 25.3335Z" fill="black"/>
<path d="M27.3333 10.6665C26.2288 10.6665 25.3333 11.562 25.3333 12.6665C25.3333 13.771 26.2288 14.6665 27.3333 14.6665C28.4378 14.6665 29.3333 13.771 29.3333 12.6665C29.3333 11.562 28.4378 10.6665 27.3333 10.6665ZM27.3333 13.3332C26.9651 13.3332 26.6666 13.0347 26.6666 12.6665C26.6666 12.2983 26.9651 11.9998 27.3333 11.9998C27.7015 11.9998 28 12.2983 28 12.6665C28 13.0347 27.7015 13.3332 27.3333 13.3332Z" fill="black"/>
</svg>
