<svg width="1459" height="1711" viewBox="0 0 1459 1711" fill="none" xmlns="http://www.w3.org/2000/svg">
<path d="M-334.303 1166.94C-378.004 1366.93 -452.031 1383.39 -483.582 1366.62L-552.257 1333.76L-107.44 50.4674C-82.3281 13.9514 -17.155 -52.9314 42.6418 -28.3342C117.388 2.41237 23.9392 133.417 65.4451 198.464C106.951 263.51 82.9678 317.302 113.925 397.383C144.882 477.464 50.9314 532.92 -100.743 600.918C-252.418 668.916 -90.6839 741.288 -9.16484 875.688C72.3542 1010.09 -55.7387 963.855 -186.817 926.235C-317.895 888.614 -279.676 916.944 -334.303 1166.94Z" stroke="#C0AEB5"/>
<path d="M-372.955 1237.66C-413.501 1444.19 -500.285 1455.73 -538.609 1435.68L-621.822 1395.86L-166.874 83.3413C-139.172 46.9593 -65.7102 -18.1908 6.5199 12.2645C96.8075 50.3337 -6.55404 180.597 46.2767 252.092C99.1073 323.587 73.713 378.19 114.889 464.648C156.066 551.106 47.8666 602.03 -128.022 661.643C-303.91 721.257 -108.219 809.763 -4.08399 957.157C100.051 1104.55 -54.3134 1046.09 -211.731 996.439C-369.148 946.787 -322.274 979.487 -372.955 1237.66Z" stroke="#E6D2D9"/>
<path d="M-327.183 1145.39C-366.737 1355.43 -458.779 1365.16 -499.856 1343.77L-588.983 1301.12L-127.933 -29.003C-99.113 -65.5159 -22.1498 -130.336 55.1429 -97.5131C151.759 -56.4845 44.1325 74.1485 101.51 148.439C158.887 222.729 132.832 277.912 178.079 367.213C223.326 456.514 109.198 505.978 -76.7255 562.718C-262.649 619.458 -53.1387 714.508 60.0687 867.553C173.276 1020.6 8.20606 957.22 -159.958 902.77C-328.123 848.319 -277.741 882.835 -327.183 1145.39Z" stroke="#DECFD4"/>
<path d="M-370.46 1298.66C-407.261 1505.3 -502.578 1512.35 -545.637 1490.05L-638.988 1445.38L-187.43 142.645C-158.261 107.335 -79.7047 45.3697 1.1671 79.9909C102.257 123.267 -6.78912 249.471 54.2541 324.552C115.297 399.632 89.375 453.485 138.134 543.074C186.892 632.663 69.4587 678.402 -122.331 729.335C-314.121 780.268 -94.7869 880.126 25.7842 1034.66C146.355 1189.19 -26.2225 1121.9 -201.831 1063.35C-377.439 1004.8 -324.459 1040.35 -370.46 1298.66Z" stroke="#E7D1D9"/>
<path d="M-365.303 1190.44C-409.004 1390.43 -483.031 1406.89 -514.582 1390.12L-583.257 1357.25L-138.44 73.9664C-113.328 37.4504 -48.155 -29.4324 11.6418 -4.83513C86.3877 25.9114 -7.06082 156.916 34.4451 221.963C75.9509 287.009 51.9678 340.801 82.9247 420.882C113.882 500.963 19.9314 556.419 -131.743 624.417C-283.418 692.415 -121.684 764.787 -40.1648 899.187C41.3542 1033.59 -86.7387 987.354 -217.817 949.734C-348.895 912.113 -310.676 940.443 -365.303 1190.44Z" stroke="#C0AEB5"/>
<path d="M-403.955 1261.16C-444.501 1467.69 -531.285 1479.23 -569.609 1459.18L-652.822 1419.36L-197.874 106.84C-170.172 70.4583 -96.7102 5.30825 -24.4801 35.7635C65.8075 73.8327 -37.554 204.096 15.2767 275.591C68.1073 347.086 42.713 401.689 83.8894 488.147C125.066 574.605 16.8666 625.529 -159.022 685.142C-334.91 744.756 -139.219 833.262 -35.084 980.656C69.0507 1128.05 -85.3134 1069.59 -242.731 1019.94C-400.148 970.286 -353.274 1002.99 -403.955 1261.16Z" stroke="#E6D2D9"/>
<path d="M-358.183 1168.89C-397.737 1378.93 -489.779 1388.66 -530.856 1367.27L-619.983 1324.62L-158.933 -5.50395C-130.113 -42.0168 -53.1498 -106.837 24.1429 -74.0141C120.759 -32.9855 13.1325 97.6476 70.5098 171.938C127.887 246.228 101.832 301.411 147.079 390.712C192.326 480.013 78.198 529.477 -107.726 586.217C-293.649 642.957 -84.1387 738.007 29.0687 891.052C142.276 1044.1 -22.7939 980.719 -190.958 926.269C-359.123 871.818 -308.741 906.334 -358.183 1168.89Z" stroke="#DECFD4"/>
<path d="M-401.46 1322.15C-438.261 1528.8 -533.578 1535.85 -576.637 1513.55L-669.988 1468.88L-218.43 166.144C-189.261 130.834 -110.705 68.8688 -29.8329 103.49C71.2569 146.766 -37.7891 272.97 23.2541 348.051C84.2973 423.131 58.375 476.984 107.134 566.573C155.892 656.162 38.4587 701.902 -153.331 752.834C-345.121 803.767 -125.787 903.625 -5.21579 1058.16C115.355 1212.69 -57.2225 1145.4 -232.831 1086.85C-408.439 1028.3 -355.459 1063.85 -401.46 1322.15Z" stroke="#E7D1D9"/>
<path d="M102.316 -483.949C-92.4758 -546.906 -101.65 -622.183 -81.888 -651.952L-42.4985 -717.103L1191.41 -149.509C1225.31 -120.962 1285.53 -49.5896 1255.23 7.52954C1217.36 78.9285 1096.07 -26.8258 1027.29 8.1528C958.513 43.1314 907.311 14.0271 824.597 37.0436C741.883 60.0601 695.834 -38.841 642.92 -196.413C590.005 -353.986 502.237 -200.062 360.542 -132.01C218.847 -63.9575 277.326 -186.943 327.524 -313.738C377.722 -440.533 345.807 -405.252 102.316 -483.949Z" stroke="#C0AEB5"/>
<path d="M35.694 -529.3C-165.916 -589.753 -168.949 -677.248 -145.264 -713.439L-97.5361 -792.382L1164.48 -211.86C1197.99 -180.749 1255.68 -101.295 1218.34 -32.3719C1171.66 53.7823 1052.08 -61.7658 975.782 -16.1437C899.485 29.4784 847.613 -1.10932 757.558 31.4576C667.503 64.0246 627.351 -48.617 585.137 -229.472C542.924 -410.327 435.793 -224.178 278.964 -134.882C122.135 -45.5857 195.341 -193.528 260.078 -345.366C324.814 -497.204 287.707 -453.734 35.694 -529.3Z" stroke="#E6D2D9"/>
<path d="M123.072 -474.766C-82.1231 -534.573 -82.8487 -627.125 -57.562 -665.925L-6.44194 -750.479L1272.5 -162.17C1306.03 -129.934 1363.05 -47.0277 1322.86 26.7039C1272.63 118.868 1153.09 -0.960237 1073.57 48.9148C994.046 98.7899 941.661 67.4885 848.381 103.83C755.1 140.171 716.977 21.771 678.601 -168.792C640.224 -359.355 525.236 -160.089 361.9 -62.3131C198.565 35.4628 277.706 -122.656 348.264 -284.723C418.821 -446.79 379.566 -400.007 123.072 -474.766Z" stroke="#DECFD4"/>
<path d="M-25.2568 -532.753C-227.339 -589.49 -225.084 -685.041 -198.697 -725.725L-145.154 -814.286L1107.45 -238.09C1139.76 -205.623 1193.78 -121.409 1151.46 -44.2904C1098.55 52.1079 983.555 -68.7025 902.89 -15.2559C822.225 38.1908 771.151 7.15069 677.242 46.9592C583.333 86.7676 549.239 -34.5599 517.213 -230.396C485.187 -426.233 364.457 -217.657 198.924 -112.698C33.3913 -7.7379 117.158 -172.948 192.518 -342.025C267.879 -511.102 227.346 -461.832 -25.2568 -532.753Z" stroke="#E7D1D9"/>
<path d="M81.9459 -517.089C-112.846 -580.046 -122.021 -655.323 -102.259 -685.092L-62.8691 -750.243L1171.04 -182.649C1204.94 -154.102 1265.16 -82.7295 1234.86 -25.6103C1196.99 45.7886 1075.7 -59.9657 1006.92 -24.9871C938.143 9.99147 886.94 -19.1128 804.226 3.90369C721.513 26.9202 675.464 -71.9809 622.549 -229.553C569.635 -387.126 481.867 -233.202 340.171 -165.15C198.476 -97.0973 256.955 -220.083 307.153 -346.878C357.351 -473.673 325.436 -438.392 81.9459 -517.089Z" stroke="#C0AEB5"/>
<path d="M15.3235 -562.44C-186.287 -622.893 -189.32 -710.388 -165.635 -746.579L-117.907 -825.522L1144.1 -245C1177.62 -213.889 1235.31 -134.435 1197.97 -65.5118C1151.29 20.6424 1031.71 -94.9057 955.412 -49.2836C879.114 -3.66153 827.242 -34.2492 737.187 -1.68229C647.132 30.8847 606.98 -81.7569 564.767 -262.612C522.554 -443.467 415.423 -257.318 258.594 -168.022C101.765 -78.7256 174.971 -226.668 239.707 -378.506C304.443 -530.344 267.336 -486.874 15.3235 -562.44Z" stroke="#E6D2D9"/>
<path d="M102.701 -507.905C-102.494 -567.713 -103.219 -660.265 -77.9326 -699.065L-26.8125 -783.619L1252.13 -195.31C1285.66 -163.074 1342.68 -80.1675 1302.49 -6.43595C1252.26 85.7286 1132.72 -34.1001 1053.2 15.7749C973.675 65.65 921.291 34.3487 828.01 70.69C734.729 107.031 696.607 -11.3689 658.23 -201.932C619.854 -392.494 504.865 -193.229 341.53 -95.453C178.195 2.32292 257.336 -155.796 327.893 -317.863C398.451 -479.93 359.195 -433.146 102.701 -507.905Z" stroke="#DECFD4"/>
<path d="M-45.6273 -565.893C-247.71 -622.629 -245.455 -718.181 -219.067 -758.865L-165.524 -847.426L1087.08 -271.23C1119.39 -238.763 1173.41 -154.549 1131.09 -77.4302C1078.18 18.968 963.184 -101.842 882.519 -48.3958C801.855 5.05094 750.78 -25.9892 656.872 13.8193C562.963 53.6277 528.868 -67.6998 496.842 -263.536C464.816 -459.373 344.086 -250.797 178.554 -145.838C13.0207 -40.8778 96.7877 -206.088 172.148 -375.165C247.508 -544.242 206.976 -494.972 -45.6273 -565.893Z" stroke="#E7D1D9"/>
</svg>
