<svg width="514" height="929" viewBox="0 0 514 929" fill="none" xmlns="http://www.w3.org/2000/svg">
<path d="M84.0547 38.3264C108.253 26.7111 192.077 8.7073 333.785 29.6149C510.919 55.7495 -284.733 17.9997 300.391 70.2688C885.514 122.538 -27.7433 125.442 291.679 443.412C611.101 761.382 313.458 886.247 265.544 915.285C227.214 938.516 163.426 924.965 136.323 915.285C34.2052 812.199 -108.76 573.504 136.323 443.412C381.407 313.32 210.371 130.765 94.2177 55.7496C87.4424 51.2785 75.9243 41.5343 84.0547 38.3264Z" stroke="#C0AEB5"/>
<path d="M96.0547 34.3264C120.253 22.7111 204.077 4.7073 345.785 25.6149C522.919 51.7495 -272.733 13.9997 312.391 66.2688C897.514 118.538 -15.7433 121.442 303.679 439.412C623.101 757.382 325.458 882.247 277.544 911.285C239.214 934.516 175.426 920.965 148.323 911.285C46.2052 808.199 -96.7604 569.504 148.323 439.412C393.407 309.32 222.371 126.765 106.218 51.7496C99.4424 47.2785 87.9243 37.5343 96.0547 34.3264Z" stroke="#C4C4C4"/>
<path d="M84.0547 19.3264C108.253 7.71109 192.077 -10.2927 333.785 10.6149C510.919 36.7495 -284.733 -1.00029 300.391 51.2688C885.514 103.538 -27.7433 106.442 291.679 424.412C611.101 742.382 313.458 867.247 265.544 896.285C227.214 919.516 163.426 905.965 136.323 896.285C34.2052 793.199 -108.76 554.504 136.323 424.412C381.407 294.32 210.371 111.765 94.2177 36.7496C87.4424 32.2785 75.9243 22.5343 84.0547 19.3264Z" stroke="#C0AEB5"/>
</svg>
