<svg width="40" height="40" viewBox="0 0 40 40" fill="none" xmlns="http://www.w3.org/2000/svg">
<path d="M33.968 26.7787L33.5716 26.1311C32.7969 24.8657 31.8592 23.7054 30.7848 22.6823L29.4595 21.4202C29.3335 21.3002 29.3146 21.1098 29.4145 20.9673L31.2242 18.3886C31.4852 18.0167 31.726 17.6251 31.9401 17.2246L33.4865 14.3311C33.756 13.8269 33.7416 13.2329 33.4479 12.7423C33.1543 12.2517 32.6375 11.9584 32.0658 11.9577L28.7185 11.9539C28.7178 11.9539 28.7172 11.9539 28.7165 11.9539C28.0152 11.9539 27.3802 12.3687 27.0984 13.0109L26.7438 13.8187C25.8393 15.8797 24.6046 17.7589 23.0729 19.4066V13.5091C23.0729 12.6512 22.3748 11.9531 21.517 11.9531H16.7763C15.9978 11.9531 15.3646 12.5864 15.3646 13.3648C15.3646 13.6621 15.4563 13.9469 15.6295 14.1881L15.9613 14.6502C16.2865 15.1031 16.4584 15.6373 16.4584 16.1949V20.5042C15.8738 19.8252 15.162 18.9032 14.5594 17.8431C13.6366 16.2197 12.9752 14.3266 12.6631 13.3427C12.3995 12.5116 11.6366 11.9531 10.7648 11.9531H7.37469C6.89626 11.9531 6.45626 12.1719 6.16719 12.5533C5.87837 12.9348 5.78704 13.4177 5.9168 13.8784L6.54922 16.123C6.9368 17.4988 7.46961 18.8382 8.13282 20.104C8.33297 20.4861 8.80501 20.6337 9.18735 20.4334C9.56961 20.2332 9.71704 19.761 9.5168 19.3788C8.90391 18.2089 8.41149 16.9709 8.05321 15.6993L7.43797 13.5156H10.7649C10.9527 13.5156 11.117 13.6359 11.1738 13.8151C11.5045 14.8575 12.2076 16.8674 13.2011 18.6152C14.0163 20.0492 15.0052 21.2439 15.6915 21.9936C16.0674 22.4043 16.6459 22.5395 17.1651 22.3377C17.6849 22.1357 18.0209 21.6448 18.0209 21.0873V16.1949C18.0209 15.3083 17.7475 14.459 17.2306 13.7389L17.0702 13.5156H21.5104V19.7809C21.5104 20.2392 21.7406 20.6607 22.1261 20.9085C22.5116 21.1564 22.9906 21.1907 23.4076 21.0003L23.7297 20.8533C23.8781 20.7856 24.0099 20.6912 24.1217 20.5725C25.8172 18.772 27.1808 16.7109 28.1747 14.4465L28.5292 13.6387C28.5618 13.5643 28.6353 13.5163 28.7165 13.5163H28.7167L32.064 13.5202C32.0754 13.5202 32.0927 13.5202 32.1073 13.5448C32.1221 13.5694 32.1139 13.5845 32.1086 13.5946L30.5622 16.488C30.3777 16.8331 30.1702 17.1705 29.9453 17.491L28.1356 20.0698C27.5878 20.8504 27.6915 21.8942 28.382 22.5518L29.7073 23.8138C30.6834 24.7433 31.5352 25.7975 32.2391 26.947L32.6355 27.5945C32.645 27.6101 32.674 27.6575 32.6379 27.722C32.6018 27.7864 32.5462 27.7864 32.528 27.7864H29.6382C29.2669 27.7864 28.9055 27.6337 28.6466 27.3676L25.7571 24.3965C25.0762 23.6963 24.212 23.2155 23.2581 23.0061C22.8305 22.9121 22.3891 23.0156 22.0477 23.2902C21.7063 23.5648 21.5105 23.9735 21.5105 24.4116V27.3308C21.5105 27.582 21.3061 27.7865 21.0548 27.7865C18.8156 27.7865 16.6028 27.0373 14.8241 25.6769C14.1076 25.1288 13.4241 24.5244 12.7928 23.8805C12.4908 23.5725 11.9962 23.5674 11.688 23.8695C11.3798 24.1716 11.375 24.6663 11.677 24.9744C12.3601 25.6711 13.0995 26.325 13.8748 26.918C15.9245 28.4856 18.4743 29.349 21.0547 29.349C22.1675 29.349 23.0729 28.4436 23.0729 27.3308V24.5688C23.6678 24.7276 24.2059 25.0427 24.637 25.4859L27.5265 28.457C28.0777 29.0238 28.8474 29.349 29.6382 29.349H32.528C33.1384 29.349 33.7028 29.0182 34.001 28.4857C34.2993 27.9533 34.2866 27.2991 33.968 26.7787Z" fill="black"/>
<path d="M10.9419 21.6839L10.9332 21.6718C10.6817 21.3212 10.1937 21.2406 9.84304 21.4921C9.49241 21.7436 9.41194 22.2316 9.66335 22.5823C9.66366 22.5828 9.66835 22.5893 9.66866 22.5898L10.3069 22.1391L9.67202 22.5944C9.8246 22.8072 10.0644 22.9205 10.3076 22.9205C10.4651 22.9205 10.6243 22.8729 10.7622 22.7741C11.1128 22.5226 11.1933 22.0345 10.9419 21.6839Z" fill="black"/>
<path d="M16.005 34.6875H9.63782C9.20641 34.6875 8.85657 35.0373 8.85657 35.4688C8.85657 35.9002 9.20641 36.25 9.63782 36.25H16.005C16.4365 36.25 16.7863 35.9002 16.7863 35.4688C16.7863 35.0373 16.4364 34.6875 16.005 34.6875Z" fill="black"/>
<path d="M19.5597 34.6875H19.5504C19.119 34.6875 18.7692 35.0373 18.7692 35.4688C18.7692 35.9002 19.119 36.25 19.5504 36.25H19.5597C19.9912 36.25 20.341 35.9002 20.341 35.4688C20.341 35.0373 19.9911 34.6875 19.5597 34.6875Z" fill="black"/>
<path d="M34.8438 0H5.15625C2.31305 0 0 2.31305 0 5.15625V34.8438C0 37.687 2.31305 40 5.15625 40H34.8438C37.687 40 40 37.687 40 34.8438V5.15625C40 2.31305 37.687 0 34.8438 0ZM38.4375 34.8438C38.4375 36.8253 36.8253 38.4375 34.8438 38.4375H5.15625C3.17469 38.4375 1.5625 36.8253 1.5625 34.8438V5.15625C1.5625 3.17469 3.17469 1.5625 5.15625 1.5625H34.8438C36.8253 1.5625 38.4375 3.17469 38.4375 5.15625V34.8438Z" fill="black"/>
</svg>
